<svg xmlns="http://www.w3.org/2000/svg" version="1.1" xmlns:xlink="http://www.w3.org/1999/xlink" width="1500" height="63" viewBox="0 0 1500 63"><svg xml:space="preserve" width="1500" height="63" data-version="2" data-id="lg_2UYrpRfwqijeQ3asrS" viewBox="0 0 555 63" x="0" y="0"><rect width="100%" height="100%" fill="transparent"></rect><path fill="#233fe1" d="M140.21 9.036h30.86v12.14h-14.15v3.98h14.15v11.71h-14.15v15.06h-16.71Z"></path><rect width="30.86" height="42.89" x="-15.43" y="-21.45" fill="none" rx="0" ry="0" transform="translate(156.14 30.98)"></rect><path fill="#233fe1" d="M173.32 9.036h16.71v29.97h14.42v12.92h-31.13Z"></path><rect width="31.13" height="42.89" x="-15.56" y="-21.45" fill="none" rx="0" ry="0" transform="translate(189.38 30.98)"></rect><path fill="#233fe1" d="M206.17 9.036h30.91v12.36h-14.21v3.52h14.15v10.52h-14.15v4.06h15.15v12.43h-31.85Z"></path><rect width="31.85" height="42.89" x="-15.93" y="-21.45" fill="none" rx="0" ry="0" transform="translate(222.6 30.98)"></rect><path fill="#233fe1" d="m263.07 42.126-4.89 9.8h-16l11.71-22.32-12.65-20.57h19.25l4.78 8.57 5.02-8.57h15.02l-11.23 20.17 13.91 22.72H268.2Z"></path><rect width="46.75" height="42.89" x="-23.38" y="-21.45" fill="none" rx="0" ry="0" transform="translate(265.12 30.98)"></rect><path fill="#233fe1" d="M289.41 9.036h40.61v13.91h-11.95v28.98h-16.71v-28.98h-11.95Z"></path><rect width="40.61" height="42.89" x="-20.3" y="-21.45" fill="none" rx="0" ry="0" transform="translate(310.21 30.98)"></rect><path fill="#233fe1" d="m322.68 51.927 21.33-40.71q.77-1.48 2.41-2.3 1.64-.82 3.41-.82 1.59 0 3.11.73 1.51.72 2.35 2.23l22.88 40.87h-21.78l-1.7-4.24h-11.6l-1.45 4.24Zm21.73-12.75h8.67l-4.11-11.61Z"></path><rect width="55.49" height="43.83" x="-27.75" y="-21.91" fill="none" rx="0" ry="0" transform="translate(350.93 30.51)"></rect><path fill="#233fe1" d="M379.21 37.696q.16.03 1.52.47 1.35.44 3.29.99 1.93.55 3.88.97 1.95.42 3.32.42 1.18 0 1.93-.35t.75-1.29q0-1.02-1.07-1.86-1.08-.83-2.76-1.71-1.67-.89-3.57-2.02-1.89-1.13-3.57-2.71-1.68-1.59-2.75-3.8-1.08-2.22-1.08-5.31 0-3.78 1.59-6.4 1.58-2.62 4.25-4.22 2.68-1.59 6.02-2.32 3.34-.72 6.86-.72 2.98 0 5.64.32 2.66.32 4.5.7 1.84.37 2.32.51v12.32l-1.11-.24q-1.12-.24-2.8-.54-1.67-.29-3.46-.53-1.79-.25-3.13-.25-1.23 0-1.85.43-.62.43-.62 1.03 0 .48.54 1.06.54.57 1.29.9 2.82 1.23 5.31 2.52 2.5 1.29 4.41 2.98 1.91 1.69 2.99 4.12 1.09 2.43 1.09 5.95 0 4.19-2.11 7.31-2.11 3.11-6.07 4.83-3.96 1.72-9.54 1.72-4.81 0-7.93-.46-3.11-.45-4.88-1.03-1.78-.58-2.49-1.04l-.71-.45Z"></path><rect width="33.84" height="45.14" x="-16.92" y="-22.57" fill="none" rx="0" ry="0" transform="translate(396.52 30.9)"></rect><path fill="#233fe1" d="M433.24 9.036v13.19l10.34-13.19h17.43l-13.86 18.08 16.01 24.81h-19.58l-8.97-15.17-.99 1.74v13.43h-17.38V9.036Z"></path><rect width="46.92" height="42.89" x="-23.46" y="-21.45" fill="none" rx="0" ry="0" transform="translate(440.2 30.98)"></rect><path fill="#233fe1" d="M466.35 9.036h30.91v12.36h-14.21v3.52h14.16v10.52h-14.16v4.06h15.15v12.43h-31.85Z"></path><rect width="31.85" height="42.89" x="-15.93" y="-21.45" fill="none" rx="0" ry="0" transform="translate(482.77 30.98)"></rect><path fill="#233fe1" d="M502.15 51.927V9.037l1.67-.12q1.68-.12 4.41-.31 2.72-.18 5.96-.36 3.24-.17 6.42-.29 3.18-.12 5.68-.12 5.21 0 8.83 1.35 3.63 1.36 5.86 3.59 2.23 2.23 3.26 4.91 1.04 2.69 1.04 5.37 0 4.7-2.39 8.07t-6.1 5.57l11.65 15.23h-21.21l-7.55-12.43v12.43Zm17.43-20.25q5.21-1.93 7.47-4.2 2.27-2.27 2.27-4.87 0-2.18-.8-2.99-.81-.8-2.02-.8-.77 0-1.61.25-.83.26-1.74.64l-3.57 1.47Z"></path><rect width="46.29" height="44.09" x="-23.14" y="-22.05" fill="none" rx="0" ry="0" transform="translate(525.8 30.38)"></rect><rect width="100" height="50.38" x="-50" y="-25.19" fill="#233fe1" rx="7" ry="7" transform="translate(70.4 31.7)scale(1.0369)"></rect><path fill="#fff" d="M55.094.756 90.58 31.522 55.094 62.288H31.628l27.02-23.39H5.56V23.984h52.89L31.587.712z"></path><circle r="7.83" fill="#fff" transform="translate(104.16 31.7)scale(1.0369)"></circle></svg></svg>